<svg width="308" height="301" viewBox="0 0 308 301" fill="none" xmlns="http://www.w3.org/2000/svg">
<path d="M72.6172 235V63.125H119.883C132.253 63.125 141.562 66.5755 147.812 73.4766C154.062 80.3125 157.188 90.3385 157.188 103.555V184.023C157.188 200.299 154.323 212.865 148.594 221.719C142.93 230.573 132.969 235 118.711 235H72.6172ZM107.188 204.629H113.145C119.46 204.629 122.617 201.569 122.617 195.449V106.777C122.617 101.048 121.836 97.3698 120.273 95.7422C118.776 94.0495 115.684 93.2031 110.996 93.2031H107.188V204.629ZM171.25 235V63.125H240V96.6211H205.82V123.965H238.242V157.07H205.82V235H171.25Z" fill="black"/>
<rect x="15" y="29" width="278" height="244" stroke="black" stroke-width="30"/>
</svg>
