<svg width="742" height="301" viewBox="0 0 742 301" fill="none" xmlns="http://www.w3.org/2000/svg">
<path d="M36.6172 235V63.125H83.8828C96.2526 63.125 105.562 66.5755 111.812 73.4766C118.062 80.3125 121.188 90.3385 121.188 103.555V184.023C121.188 200.299 118.323 212.865 112.594 221.719C106.93 230.573 96.9688 235 82.7109 235H36.6172ZM71.1875 204.629H77.1445C83.4596 204.629 86.6172 201.569 86.6172 195.449V106.777C86.6172 101.048 85.8359 97.3698 84.2734 95.7422C82.776 94.0495 79.6836 93.2031 74.9961 93.2031H71.1875V204.629ZM130.562 235L147.164 63.125H205.465L221.773 235H189.254L186.812 207.266H166.109L163.961 235H130.562ZM168.551 179.824H184.176L176.656 92.4219H175.094L168.551 179.824ZM244.527 235V96.1328H224.117V63.125H299.312V96.1328H278.902V235H244.527ZM301.656 235L318.258 63.125H376.559L392.867 235H360.348L357.906 207.266H337.203L335.055 235H301.656ZM339.645 179.824H355.27L347.75 92.4219H346.188L339.645 179.824ZM403.414 235V63.125H472.164V96.6211H437.984V123.965H470.406V157.07H437.984V235H403.414ZM481.734 235V63.125H514.938V235H481.734ZM569.43 236.562C553.74 236.562 542.411 232.656 535.445 224.844C528.544 217.031 525.094 204.596 525.094 187.539V170.742H559.078V192.227C559.078 196.198 559.664 199.323 560.836 201.602C562.073 203.815 564.189 204.922 567.184 204.922C570.309 204.922 572.457 204.01 573.629 202.188C574.866 200.365 575.484 197.37 575.484 193.203C575.484 187.93 574.964 183.535 573.922 180.02C572.88 176.439 571.057 173.053 568.453 169.863C565.914 166.608 562.366 162.832 557.809 158.535L542.379 143.887C530.855 133.014 525.094 120.579 525.094 106.582C525.094 91.9336 528.479 80.7682 535.25 73.0859C542.086 65.4036 551.949 61.5625 564.84 61.5625C580.595 61.5625 591.76 65.7617 598.336 74.1602C604.977 82.5586 608.297 95.319 608.297 112.441H573.336V100.625C573.336 98.2812 572.652 96.4583 571.285 95.1562C569.983 93.8542 568.193 93.2031 565.914 93.2031C563.18 93.2031 561.161 93.9844 559.859 95.5469C558.622 97.0443 558.004 98.9974 558.004 101.406C558.004 103.815 558.655 106.419 559.957 109.219C561.259 112.018 563.831 115.241 567.672 118.887L587.496 137.93C591.467 141.706 595.113 145.71 598.434 149.941C601.754 154.108 604.423 158.991 606.441 164.59C608.46 170.124 609.469 176.895 609.469 184.902C609.469 201.048 606.474 213.711 600.484 222.891C594.56 232.005 584.208 236.562 569.43 236.562ZM620.992 235V63.125H655.172V124.551H671.383V63.125H705.562V235H671.383V157.07H655.172V235H620.992Z" fill="black"/>
<rect x="15" y="31" width="712" height="239" stroke="black" stroke-width="30"/>
</svg>
